# xmcd
#
# Track frame offsets: 
#        150
#        12692
#        24620
#        34547
#        45770
#        58037
#        68167
#        78320
#        90397
#        102090
#        113190
#        124807
#        133437
#        145802
#        157282
#        168840
#        179125
#        190635
#        200865
#        212232
#        222760
#        235392
#        247295
#        257507
#        267020
#        277505
#        290410
#        301565
#        313492
#        322972
#        335937
#
# Disc length: 4641 seconds
#
# Revision: 4
# Processed by: cddbd v1.5.2PL0 Copyright (c) Steve Scherf et al.
# Submitted via: ExactAudioCopyFreeDBPlugin 1.0
#
DISCID=d1121f1f
DTITLE=Various Artist - A Shot in the Dark:  Tennessee Jive - Country
DTITLE=on Nashville Independent Labels, 1945-1955 [Bear Family box se
DTITLE=t]
DYEAR=2000
DGENRE=Country
TTITLE0=Allen Flatt - I'll Have The Last Laugh Yet
TTITLE1=Randy Hughes - Tapping That Thing
TTITLE2=Mississippi Slim - Tired of Your Lies
TTITLE3=Carl Runner - No Money
TTITLE4=Billy Wallace - Southwind
TTITLE5=Billy Wallace - I'm Gonna Turn You A'loose (with The Night Owl
TTITLE5=s)
TTITLE6=Bob Williams - We're Steppin' Out Tonight
TTITLE7=Floyd Huffman - Twice the Loving
TTITLE8=Rebe and Rabe and The Sunny Valley Boys - I Couldn't Stand to He
TTITLE8=ar You Say "I Do"
TTITLE9=Rebe and Rabe and The Sunny Valley Boys - My Empty Arms
TTITLE10=Ted West - She's My Gal
TTITLE11=Ted West - She Bent My Pole
TTITLE12=Floyd Huffman - My Heart Slowly Died
TTITLE13=Smiley Wilson and Kitty Carson - I've Found My Own
TTITLE14=Sonny Sims - Walk Off and Leave It
TTITLE15=Sonny Sims - Two Kinds of Women
TTITLE16=Lee Bonds and Sonny Sims - I'm Glad That I Love You
TTITLE17=Don Windle - I Want You Too
TTITLE18=Jimmy J.D. Simpson - Ramblin' Blues
TTITLE19=Don Windle - When My Baby Comes Home to Me
TTITLE20=Jimmy J.D. Simpson - I Hope Someday You'll Think of Me
TTITLE21=Jimmy J.D. Simpson - Oilfield Blues
TTITLE22=Allen Flatt - That's What She Wrote
TTITLE23=Clay Eager - Don't Come Crying on My Shoulder
TTITLE24=Larry Dexter - Throwing Kisses (And Making Eyes at You)
TTITLE25=Ted West - Parking Worries
TTITLE26=Tommy Smith - Magic Girl
TTITLE27=Larry Dexter and Betty Jo Foster - Cause I Love You
TTITLE28=Glenn Reeves - That'll Be Love
TTITLE29=Kelleys - Devil's Little Angel
TTITLE30=Kelleys - Leaving Tennessee
EXTD=Volume #4 of a 8-CD Box Set -BCD 15854
EXTT0=
EXTT1=
EXTT2=
EXTT3=
EXTT4=
EXTT5=
EXTT6=
EXTT7=
EXTT8=
EXTT9=
EXTT10=
EXTT11=
EXTT12=
EXTT13=
EXTT14=
EXTT15=
EXTT16=
EXTT17=
EXTT18=
EXTT19=
EXTT20=
EXTT21=
EXTT22=
EXTT23=
EXTT24=
EXTT25=
EXTT26=
EXTT27=
EXTT28=
EXTT29=
EXTT30=
PLAYORDER=
